<svg width="40" height="40" viewBox="0 0 40 40" fill="none" xmlns="http://www.w3.org/2000/svg">
<path d="M0 20C0 8.95431 8.9543 0 20 0V0C31.0457 0 40 8.95431 40 20V20C40 31.0457 31.0457 40 20 40V40C8.9543 40 0 31.0457 0 20V20Z" fill="#374151"/>
<path fill-rule="evenodd" clip-rule="evenodd" d="M26.435 27.2634C26.8256 27.654 27.4587 27.654 27.8492 27.2634C28.2398 26.8729 28.2398 26.2397 27.8492 25.8492L21.5564 19.5563L27.8493 13.2634C28.2398 12.8729 28.2398 12.2397 27.8493 11.8492C27.4588 11.4587 26.8256 11.4587 26.4351 11.8492L20.1422 18.1421L13.7071 11.7071C13.3166 11.3166 12.6834 11.3166 12.2929 11.7071C11.9024 12.0976 11.9024 12.7308 12.2929 13.1213L18.7279 19.5563L12.2929 25.9914C11.9024 26.3819 11.9024 27.015 12.2929 27.4056C12.6834 27.7961 13.3166 27.7961 13.7071 27.4056L20.1422 20.9706L26.435 27.2634Z" fill="white"/>
</svg>
