<svg width="150" height="40" viewBox="0 0 150 40" fill="none" xmlns="http://www.w3.org/2000/svg">
<g id="Logo">
<path d="M23.8594 32.0564V39.2511H0V0.426353H9.18504V32.0564H23.8594Z" fill="#FFFFFF"/>
<path d="M66.4591 19.8254C66.4591 22.6322 65.9609 25.2436 64.9645 27.6596C63.9862 30.0756 62.6003 32.1807 60.8067 33.975C59.0132 35.7514 56.8483 37.146 54.312 38.1585C51.7938 39.1711 48.9948 39.6774 45.915 39.6774C42.8352 39.6774 40.0272 39.1711 37.4909 38.1585C34.9546 37.146 32.7806 35.7514 30.9689 33.975C29.1754 32.1807 27.7804 30.0756 26.784 27.6596C25.8058 25.2436 25.3166 22.6322 25.3166 19.8254C25.3166 17.0186 25.8058 14.4072 26.784 11.9912C27.7804 9.57516 29.1754 7.47893 30.9689 5.70246C32.7806 3.92599 34.9546 2.53147 37.4909 1.51888C40.0272 0.506294 42.8352 0 45.915 0C48.9948 0 51.7938 0.515176 54.312 1.54553C56.8483 2.55811 59.0132 3.95264 60.8067 5.72911C62.6003 7.50558 63.9862 9.60181 64.9645 12.0178C65.9609 14.4338 66.4591 17.0363 66.4591 19.8254ZM57.0566 19.8254C57.0566 17.9068 56.803 16.1836 56.2957 14.6559C55.7885 13.1103 55.0548 11.8046 54.0946 10.7388C53.1525 9.67287 51.9931 8.8557 50.6162 8.28722C49.2394 7.71876 47.6723 7.43452 45.915 7.43452C44.1396 7.43452 42.5544 7.71876 41.1595 8.28722C39.7826 8.8557 38.6141 9.67287 37.6539 10.7388C36.7119 11.8046 35.9872 13.1103 35.4799 14.6559C34.9727 16.1836 34.7191 17.9068 34.7191 19.8254C34.7191 21.7617 34.9727 23.5027 35.4799 25.0482C35.9872 26.576 36.7119 27.8728 37.6539 28.9387C38.6141 30.0046 39.7826 30.8217 41.1595 31.3902C42.5544 31.9409 44.1396 32.2163 45.915 32.2163C47.6723 32.2163 49.2394 31.9409 50.6162 31.3902C51.9931 30.8217 53.1525 30.0046 54.0946 28.9387C55.0548 27.8728 55.7885 26.576 56.2957 25.0482C56.803 23.5027 57.0566 21.7617 57.0566 19.8254Z" fill="#FFFFFF"/>
<path d="M90.8866 19.1326H104.963V35.5205C102.934 36.9772 100.769 38.0342 98.4683 38.6915C96.1856 39.3488 93.7943 39.6774 91.2942 39.6774C88.0332 39.6774 85.0621 39.18 82.3809 38.1852C79.7178 37.1726 77.4351 35.787 75.5329 34.0283C73.6306 32.2518 72.1632 30.1556 71.1306 27.7396C70.0979 25.3058 69.5816 22.6677 69.5816 19.8254C69.5816 16.9297 70.0708 14.2739 71.049 11.8579C72.0273 9.42416 73.4223 7.32793 75.2339 5.56923C77.0637 3.81052 79.2649 2.44264 81.8374 1.46558C84.428 0.488528 87.3176 0 90.5061 0C92.1547 0 93.7037 0.133235 95.153 0.399705C96.6023 0.666175 97.9339 1.03035 99.1477 1.49223C100.38 1.95412 101.503 2.50482 102.517 3.14435C103.532 3.78388 104.438 4.4767 105.235 5.22282L102.572 9.19322C102.155 9.81499 101.612 10.1969 100.941 10.339C100.289 10.4812 99.5825 10.3213 98.8216 9.8594C98.0969 9.43305 97.4085 9.06887 96.7563 8.76687C96.1222 8.44711 95.47 8.18952 94.7997 7.99411C94.1294 7.7987 93.4229 7.65658 92.6801 7.56776C91.9373 7.47893 91.104 7.43452 90.18 7.43452C88.459 7.43452 86.91 7.73652 85.5332 8.34052C84.1563 8.92675 82.9787 9.76169 82.0004 10.8453C81.0403 11.929 80.2975 13.2347 79.7721 14.7625C79.2467 16.2724 78.9841 17.9601 78.9841 19.8254C78.9841 21.8861 79.2739 23.7159 79.8536 25.3147C80.4334 26.9135 81.2486 28.2636 82.2994 29.365C83.3682 30.4664 84.6364 31.3103 86.1038 31.8965C87.5894 32.465 89.2289 32.7492 91.0224 32.7492C92.1275 32.7492 93.1239 32.6426 94.0117 32.4294C94.9175 32.2163 95.7961 31.932 96.6476 31.5767V25.6877H92.7344C92.1547 25.6877 91.7018 25.5367 91.3757 25.2347C91.0496 24.9327 90.8866 24.5508 90.8866 24.0889V19.1326Z" fill="#FFFFFF"/>
<path d="M150 19.8254C150 22.6322 149.502 25.2436 148.505 27.6596C147.527 30.0756 146.141 32.1807 144.348 33.975C142.554 35.7514 140.389 37.146 137.853 38.1585C135.335 39.1711 132.536 39.6774 129.456 39.6774C126.376 39.6774 123.568 39.1711 121.032 38.1585C118.495 37.146 116.321 35.7514 114.51 33.975C112.716 32.1807 111.321 30.0756 110.325 27.6596C109.347 25.2436 108.858 22.6322 108.858 19.8254C108.858 17.0186 109.347 14.4072 110.325 11.9912C111.321 9.57516 112.716 7.47893 114.51 5.70246C116.321 3.92599 118.495 2.53147 121.032 1.51888C123.568 0.506294 126.376 0 129.456 0C132.536 0 135.335 0.515176 137.853 1.54553C140.389 2.55811 142.554 3.95264 144.348 5.72911C146.141 7.50558 147.527 9.60181 148.505 12.0178C149.502 14.4338 150 17.0363 150 19.8254ZM140.598 19.8254C140.598 17.9068 140.344 16.1836 139.837 14.6559C139.329 13.1103 138.596 11.8046 137.636 10.7388C136.693 9.67287 135.534 8.8557 134.157 8.28722C132.78 7.71876 131.213 7.43452 129.456 7.43452C127.681 7.43452 126.095 7.71876 124.7 8.28722C123.324 8.8557 122.155 9.67287 121.195 10.7388C120.253 11.8046 119.528 13.1103 119.021 14.6559C118.514 16.1836 118.26 17.9068 118.26 19.8254C118.26 21.7617 118.514 23.5027 119.021 25.0482C119.528 26.576 120.253 27.8728 121.195 28.9387C122.155 30.0046 123.324 30.8217 124.7 31.3902C126.095 31.9409 127.681 32.2163 129.456 32.2163C131.213 32.2163 132.78 31.9409 134.157 31.3902C135.534 30.8217 136.693 30.0046 137.636 28.9387C138.596 27.8728 139.329 26.576 139.837 25.0482C140.344 23.5027 140.598 21.7617 140.598 19.8254Z" fill="#FFFFFF"/>
</g>
</svg>
