<svg width="24" height="24" viewBox="0 0 24 24" fill="none" xmlns="http://www.w3.org/2000/svg">
<path d="M12.0004 2C13.0612 2 14.0787 2.42143 14.8288 3.17157C15.5789 3.92172 16.0004 4.93913 16.0004 6H18.0354C18.5536 5.99993 19.0515 6.20099 19.4244 6.56081C19.7973 6.92064 20.016 7.41114 20.0344 7.929L20.4624 19.929C20.4719 20.1974 20.4273 20.465 20.3312 20.7157C20.2351 20.9665 20.0894 21.1953 19.903 21.3886C19.7165 21.5819 19.493 21.7356 19.2459 21.8407C18.9987 21.9457 18.7329 21.9999 18.4644 22H5.53637C5.26781 21.9999 5.00202 21.9457 4.75486 21.8407C4.5077 21.7356 4.28422 21.5819 4.09776 21.3886C3.91129 21.1953 3.76567 20.9665 3.66956 20.7157C3.57345 20.465 3.52884 20.1974 3.53837 19.929L3.96637 7.929C3.98477 7.41114 4.20344 6.92064 4.57632 6.56081C4.9492 6.20099 5.44719 5.99993 5.96537 6H8.00037C8.00037 4.93913 8.4218 3.92172 9.17194 3.17157C9.92209 2.42143 10.9395 2 12.0004 2ZM8.00037 8H5.96537L5.53637 20H18.4644L18.0354 8H16.0004V9C16.0001 9.25488 15.9025 9.50003 15.7275 9.68537C15.5526 9.87071 15.3134 9.98224 15.059 9.99717C14.8045 10.0121 14.554 9.92933 14.3585 9.76574C14.1631 9.60215 14.0375 9.3701 14.0074 9.117L14.0004 9V8H10.0004V9C10.0001 9.25488 9.90249 9.50003 9.72752 9.68537C9.55255 9.87071 9.31342 9.98224 9.05898 9.99717C8.80453 10.0121 8.55399 9.92933 8.35854 9.76574C8.16308 9.60215 8.03747 9.3701 8.00737 9.117L8.00037 9V8ZM12.0004 4C11.4958 3.99984 11.0098 4.19041 10.6398 4.5335C10.2698 4.87659 10.0432 5.34685 10.0054 5.85L10.0004 6H14.0004C14.0004 5.46957 13.7897 4.96086 13.4146 4.58579C13.0395 4.21071 12.5308 4 12.0004 4Z" fill="white"/>
</svg>
