<svg width="35" height="33" viewBox="0 0 35 33" fill="none" xmlns="http://www.w3.org/2000/svg">
<path d="M12.9042 0.42424C13.2791 0.345288 13.9928 0.216092 14.4902 0.144317C15.0237 0.0653641 15.8311 0.00794395 16.4727 0.000766425C17.208 -0.0064111 17.8713 0.0366541 18.5417 0.137139C19.0896 0.216092 19.8393 0.345288 20.1998 0.42424C20.5675 0.503193 21.0288 0.646744 21.2307 0.740052C21.4253 0.833359 21.6849 1.01997 21.8002 1.15635C21.9156 1.28554 22.0886 1.57264 22.1895 1.78797C22.3409 2.12531 22.3625 2.25451 22.3337 2.68516C22.312 2.95791 22.24 3.30243 22.1751 3.4388C22.103 3.57517 21.9228 3.81203 21.7786 3.96276C21.6344 4.11349 21.3965 4.3001 21.2451 4.37906C21.1009 4.45083 20.827 4.54414 20.6395 4.5872C20.3512 4.63745 20.1133 4.61592 19.2122 4.42212C18.1813 4.2068 18.0587 4.19962 16.5088 4.19962C15.0958 4.19962 14.793 4.22115 14.1298 4.35752C13.7116 4.45083 13.034 4.63745 12.6159 4.77382C12.1977 4.91019 11.5057 5.19729 11.0659 5.40544C10.6262 5.62077 9.99897 5.97964 9.66014 6.20215C9.32132 6.43183 8.80227 6.81942 8.50669 7.06345C8.21112 7.30749 7.74253 7.74532 7.46859 8.03959C7.20185 8.33387 6.80536 8.80041 6.59629 9.07316C6.39444 9.3459 6.05561 9.84833 5.85376 10.1857C5.65191 10.523 5.35633 11.09 5.20494 11.4417C5.04634 11.7934 4.81565 12.4107 4.6931 12.8055C4.56334 13.2002 4.39032 13.8965 4.31102 14.3486C4.19567 14.9946 4.15963 15.4683 4.15963 16.5019C4.15963 17.5355 4.19567 18.0092 4.31102 18.6552C4.39032 19.1073 4.59217 19.8825 4.75798 20.3778C4.91658 20.873 5.22657 21.6123 5.42842 22.0286C5.63749 22.4449 6.01957 23.0837 6.27188 23.4569C6.53141 23.8301 6.97116 24.3972 7.25232 24.713C7.52626 25.036 8.03811 25.5384 8.39135 25.8327C8.73738 26.127 9.29969 26.5576 9.64573 26.7873C9.99176 27.017 10.6262 27.383 11.0659 27.5984C11.5057 27.8065 12.1977 28.0936 12.6159 28.23C13.034 28.3663 13.6972 28.5458 14.0937 28.6319C14.5767 28.7324 15.2183 28.797 16.0402 28.8257C16.8187 28.8544 17.5252 28.8401 17.9866 28.7826C18.3831 28.7324 19.0319 28.6176 19.4284 28.5243C19.8249 28.4309 20.4737 28.2372 20.8702 28.0936C21.2667 27.95 21.9011 27.6629 22.276 27.4692C22.6509 27.2682 23.206 26.9452 23.5015 26.7442C23.7971 26.5433 24.3162 26.1413 24.655 25.8614C24.9938 25.5815 25.4624 25.1293 25.7003 24.8565C25.9454 24.5838 26.2915 24.1675 26.4717 23.9306C26.6519 23.6938 26.9331 23.2847 27.0989 23.0119C27.2575 22.7463 27.5098 22.3085 27.6468 22.0286C27.7837 21.7487 28 21.275 28.1226 20.9735C28.2451 20.6649 28.4325 20.0619 28.5479 19.6241C28.656 19.1863 28.7858 18.5906 28.829 18.2963C28.8723 18.002 28.9372 17.3345 28.9732 16.8249C29.0165 16.1 29.0669 15.82 29.1895 15.5832C29.2688 15.4181 29.4634 15.1669 29.6148 15.0233C29.759 14.887 30.0257 14.7003 30.206 14.6142C30.4439 14.4994 30.6601 14.4635 31.035 14.4635C31.3811 14.4635 31.6406 14.5065 31.8641 14.607C32.0443 14.686 32.311 14.8726 32.4624 15.0161C32.6066 15.1597 32.8012 15.4181 32.8877 15.5832C33.0031 15.8129 33.0536 16.0569 33.0752 16.5378C33.0896 16.8895 33.068 17.5713 33.0247 18.0451C32.9743 18.5188 32.8589 19.3083 32.758 19.8036C32.6571 20.2988 32.4408 21.1242 32.2678 21.6338C32.0947 22.1434 31.8136 22.8755 31.6478 23.2488C31.4748 23.622 31.1936 24.189 31.0134 24.5048C30.8332 24.8206 30.516 25.3374 30.3069 25.6532C30.0978 25.9691 29.7013 26.5002 29.4346 26.8375C29.1679 27.1749 28.6344 27.7563 28.2595 28.1295C27.8847 28.5099 27.2647 29.0626 26.8898 29.364C26.5149 29.6655 25.895 30.1105 25.5201 30.3473C25.1452 30.5914 24.3811 31.0149 23.826 31.2876C23.2709 31.5603 22.3769 31.9336 21.8435 32.1058C21.31 32.2853 20.5602 32.5006 20.1854 32.5796C19.8105 32.6657 19.1617 32.7805 18.7436 32.8451C18.3254 32.9025 17.4676 32.9671 16.8332 32.9887C15.9032 33.0174 15.4706 32.9958 14.5984 32.8738C14.0072 32.7877 13.1637 32.637 12.724 32.5293C12.2842 32.4288 11.621 32.2422 11.2461 32.1058C10.8713 31.9766 10.2513 31.7398 9.87642 31.5747C9.50154 31.4168 8.89598 31.1153 8.54274 30.9144C8.1895 30.7134 7.64882 30.3904 7.35324 30.1894C7.05767 29.9956 6.5242 29.6009 6.16375 29.3138C5.8105 29.0195 5.18332 28.4525 4.77961 28.0434C4.3759 27.6342 3.85685 27.0816 3.64058 26.8016C3.4171 26.5217 3.00618 25.9619 2.72503 25.5456C2.45108 25.1293 1.9897 24.3254 1.70134 23.7512C1.41298 23.177 1.0309 22.2583 0.850669 21.7056C0.670443 21.1529 0.454171 20.3849 0.367662 19.9974C0.281153 19.6169 0.165808 18.892 0.108136 18.3896C0.0504634 17.88 0 17.0474 0 16.5378C0 16.021 0.0360453 15.2674 0.0720906 14.8511C0.115345 14.4348 0.23069 13.7027 0.324408 13.2146C0.425335 12.7337 0.656025 11.8796 0.84346 11.3197C1.0309 10.7527 1.42019 9.81962 1.70855 9.23106C1.99691 8.64968 2.47992 7.80991 2.7827 7.37208C3.08548 6.92708 3.46756 6.40312 3.63337 6.20215C3.79197 6.00835 4.138 5.62077 4.39032 5.34084C4.64985 5.0681 5.11843 4.60156 5.43563 4.30728C5.76004 4.02018 6.30793 3.56082 6.66838 3.29525C7.02884 3.02968 7.69207 2.59185 8.14624 2.31911C8.60041 2.04636 9.32853 1.66595 9.76828 1.47216C10.208 1.28554 10.9361 0.998442 11.3903 0.847714C11.8445 0.696986 12.5294 0.510371 12.9042 0.42424Z" fill="#44A300"/>
<path d="M31.8641 1.99612C32.001 1.90281 32.2606 1.78797 32.4408 1.73773C32.6282 1.68748 32.9382 1.66595 33.1617 1.68748C33.378 1.70902 33.688 1.78079 33.8465 1.85257C34.0051 1.91717 34.2575 2.0966 34.4016 2.24015C34.553 2.3837 34.7477 2.6421 34.8342 2.81436C34.964 3.05839 35 3.23065 35 3.7259C35 4.22115 34.964 4.40059 34.8342 4.65898C34.7116 4.88866 32.3975 7.23571 26.724 12.8557C21.0721 18.4614 18.6859 20.7797 18.4552 20.8945C18.2029 21.0237 18.0154 21.0596 17.5901 21.0524C17.1504 21.0524 16.9773 21.0166 16.689 20.8658C16.4295 20.7295 15.5499 19.8969 13.4737 17.8154C10.7775 15.1238 10.6045 14.9372 10.4892 14.564C10.4027 14.2912 10.3738 14.0257 10.3955 13.7027C10.4171 13.3797 10.482 13.1356 10.6117 12.9131C10.7127 12.7337 10.9361 12.4681 11.1092 12.3174C11.2822 12.1738 11.5705 12.0016 11.7508 11.9442C11.931 11.8796 12.2338 11.8365 12.4356 11.8365C12.6303 11.8365 12.9547 11.8867 13.1565 11.9513C13.4737 12.059 13.7477 12.303 17.5901 16.1071L24.6045 9.13776C28.4542 5.30496 31.7271 2.08943 31.8641 1.99612Z" fill="#44A300"/>
</svg>
