<svg width="24" height="24" viewBox="0 0 24 24" fill="none" xmlns="http://www.w3.org/2000/svg">
<path fill-rule="evenodd" clip-rule="evenodd" d="M13.2801 1.76525C12.5384 1.14718 11.4611 1.14718 10.7194 1.76525L2.78818 8.3746C2.25584 8.81822 1.99429 9.50081 2.08216 10.18C2.22194 11.2603 2.49977 13.6226 2.49977 15.25C2.49977 16.6203 2.3023 18.5189 2.15494 19.7381C2.01141 20.9255 2.93037 22 4.15088 22H4.1619H4.17297H4.18408H4.19524H4.20643H4.21767H4.22895H4.24028H4.25165H4.26306H4.27451H4.286H4.29754H4.30912H4.32074H4.3324H4.3441H4.35585H4.36763H4.37946H4.39133H4.40323H4.41518H4.42717H4.4392H4.45127H4.46338H4.47553H4.48772H4.49995H4.51222H4.52453H4.53688H4.54926H4.56169H4.57416H4.58666H4.5992H4.61178H4.6244H4.63706H4.64975H4.66249H4.67526H4.68807H4.70091H4.7138H4.72672H4.73968H4.75267H4.76571H4.77877H4.79188H4.80502H4.8182H4.83142H4.84467H4.85795H4.87128H4.88463H4.89803H4.91146H4.92492H4.93842H4.95196H4.96553H4.97913H4.99277H5.00644H5.02015H5.03389H5.04767H5.06148H5.07532H5.0892H5.10311H5.11705H5.13103H5.14504H5.15909H5.17316H5.18727H5.20141H5.21559H5.2298H5.24403H5.25831H5.27261H5.28694H5.30131H5.31571H5.33014H5.3446H5.35909H5.37361H5.38817H5.40275H5.41736H5.43201H5.44669H5.46139H5.47613H5.49089H5.50569H5.52051H5.53537H5.55025H5.56517H5.58011H5.59508H5.61008H5.62511H5.64017H5.65525H5.67037H5.68551H5.70068H5.71588H5.73111H5.74636H5.76164H5.77695H5.79229H5.80765H5.82304H5.83846H5.8539H5.86937H5.88487H5.90039H5.91594H5.93152H5.94712H5.96274H5.9784H5.99408H6.00978H6.02551H6.04126H6.05704H6.07284H6.08867H6.10452H6.1204H6.1363H6.15223H6.16818H6.18415H6.20015H6.21617H6.23222H6.24828H6.26437H6.28049H6.29663H6.31279H6.32897H6.34517H6.3614H6.37765H6.39392H6.41022H6.42653H6.44287H6.45923H6.47561H6.49201H6.50844H6.52488H6.54135H6.55783H6.57434H6.59087H6.60741H6.62398H6.64057H6.65718H6.67381H6.69045H6.70712H6.72381H6.74051H6.75724H6.77398H6.79075H6.80753H6.82433H6.84115H6.85799H6.87484H6.89172H6.90861H6.92552H6.94245H6.95939H6.97636H6.99334H7.01033H7.02735H7.04438H7.06143H7.07849H7.09557H7.11267H7.12979H7.14692H7.16406H7.18122H7.1984H7.21559H7.2328H7.25003H7.26727H7.28452H7.30179H7.31907H7.33637H7.35368H7.37101H7.38835H7.40571H7.42308H7.44046H7.45786H7.47527H7.4927H7.51013H7.52758H7.54505H7.56252H7.58001H7.59752H7.61503H7.63256H7.6501H7.66765H7.68521H7.70279H7.72037H7.73797H7.75558H7.7732H7.79084H7.80848H7.82613H7.8438H7.86147H7.87916H7.89686H7.91456H7.93228H7.95001H7.96774H7.98549H8.00325H8.02101H8.03879H8.05657H8.07436H8.09216H8.10997H8.12779H8.14562H8.16346H8.1813H8.19915H8.21701H8.23488H8.25276H8.27064H8.28853H8.30643H8.32433H8.34224H8.36016H8.37809H8.39602H8.41396H8.4319H8.44986H8.46781H8.48578H8.50374H8.52172H8.5397H8.55769H8.57568H8.59367H8.61167H8.62968H8.64769H8.6657H8.68372H8.70175H8.71978H8.73781H8.75584H8.77388H8.79193H8.80998H8.82803H8.84608H8.86414H8.8822H8.90026H8.91832H8.93639H8.95446H8.97254H8.99061H9.00869H9.02677H9.04485H9.06293H9.08101H9.0991H9.11719H9.13527H9.15336H9.17145H9.18954H9.20763H9.22572H9.24382H9.26191H9.28H9.29809H9.31618H9.33427H9.35236H9.37045H9.38854H9.40663H9.42472H9.4428H9.46089H9.47897H9.49705H9.51513H9.53321H9.55129H9.56936H9.58744H9.60551H9.62357H9.64164H9.6597H9.67776H9.69581H9.71387H9.73192H9.74996H9.768H9.78604H9.80408H9.82211H9.84013H9.85816H9.87617H9.89419H9.9122H9.9302H9.9482H9.96619H9.98418H10.0022H10.0201H10.0381H10.0561H10.074H10.092H10.1099H10.1279H10.1458H10.1638H10.1817H10.1996H10.2175H10.2354H10.2533H10.2712H10.2891H10.3069H10.3248H10.3427H10.3605H10.3784H10.3962H10.414H10.4318H10.4496H10.4674H10.4852H10.503H10.5208H10.5385H10.5563H10.574H10.5918H10.6095H10.6272H10.6449H10.6626H10.6803H10.6979H10.7156H10.7333H10.7509H10.7685H10.7861H10.8038H10.8213H10.8389H10.8565H10.8741H10.8916H10.9091H10.9267H10.9442H10.9617H10.9792H10.9966H11.0141H11.0315H11.049H11.0664H11.0838H11.1012H11.1186H11.1359H11.1533H11.1706H11.1879H11.2052H11.2225H11.2398H11.2571H11.2743H11.2916H11.3088H11.326H11.3432H11.3603H11.3775H11.3946H11.4118H11.4289H11.446H11.463H11.4801H11.4971H11.5142H11.5312H11.5482H11.5651H11.5821H11.599H11.6159H11.6328H11.6497H11.6666H11.6835H11.7003H11.7171H11.7339H11.7507H11.7674H11.7842H11.8009H11.8176H11.8343H11.8509H11.8676H11.8842H11.9008H11.9174H11.9339H11.9505H11.967H11.9835H12H12.0164H12.0328H12.0493H12.0657H12.082H12.0984H12.1147H12.131H12.1473H12.1636H12.1798H12.196H12.2122H12.2284H12.2446H12.2607H12.2768H12.2929H12.3089H12.325H12.341H12.357H12.3729H12.3889H12.4048H12.4207H12.4365H12.4524H12.4682H12.484H12.4998H12.5149H12.5301H12.5453H12.5605H12.5758H12.591H12.6062H12.6215H12.6368H12.652H12.6673H12.6826H12.6979H12.7133H12.7286H12.7439H12.7593H12.7746H12.79H12.8054H12.8208H12.8362H12.8516H12.867H12.8825H12.8979H12.9134H12.9288H12.9443H12.9598H12.9753H12.9908H13.0063H13.0218H13.0374H13.0529H13.0684H13.084H13.0996H13.1151H13.1307H13.1463H13.1619H13.1775H13.1931H13.2088H13.2244H13.24H13.2557H13.2713H13.287H13.3027H13.3183H13.334H13.3497H13.3654H13.3811H13.3968H13.4125H13.4283H13.444H13.4597H13.4755H13.4912H13.507H13.5228H13.5385H13.5543H13.5701H13.5859H13.6017H13.6175H13.6333H13.6491H13.6649H13.6807H13.6966H13.7124H13.7282H13.7441H13.7599H13.7758H13.7916H13.8075H13.8233H13.8392H13.8551H13.871H13.8869H13.9027H13.9186H13.9345H13.9504H13.9663H13.9822H13.9981H14.0141H14.03H14.0459H14.0618H14.0777H14.0937H14.1096H14.1255H14.1415H14.1574H14.1734H14.1893H14.2053H14.2212H14.2372H14.2531H14.2691H14.285H14.301H14.317H14.3329H14.3489H14.3649H14.3808H14.3968H14.4128H14.4287H14.4447H14.4607H14.4767H14.4926H14.5086H14.5246H14.5406H14.5566H14.5725H14.5885H14.6045H14.6205H14.6365H14.6524H14.6684H14.6844H14.7004H14.7164H14.7323H14.7483H14.7643H14.7803H14.7962H14.8122H14.8282H14.8442H14.8601H14.8761H14.8921H14.908H14.924H14.94H14.9559H14.9719H14.9878H15.0038H15.0197H15.0357H15.0516H15.0676H15.0835H15.0995H15.1154H15.1313H15.1473H15.1632H15.1791H15.1951H15.211H15.2269H15.2428H15.2587H15.2746H15.2905H15.3064H15.3223H15.3382H15.3541H15.37H15.3859H15.4017H15.4176H15.4335H15.4493H15.4652H15.481H15.4969H15.5127H15.5286H15.5444H15.5602H15.5761H15.5919H15.6077H15.6235H15.6393H15.6551H15.6709H15.6867H15.7024H15.7182H15.734H15.7497H15.7655H15.7812H15.797H15.8127H15.8284H15.8441H15.8599H15.8756H15.8913H15.9069H15.9226H15.9383H15.954H15.9696H15.9853H16.0009H16.0166H16.0322H16.0478H16.0634H16.0791H16.0947H16.1102H16.1258H16.1414H16.157H16.1725H16.1881H16.2036H16.2191H16.2347H16.2502H16.2657H16.2812H16.2966H16.3121H16.3276H16.343H16.3585H16.3739H16.3893H16.4048H16.4202H16.4356H16.4509H16.4663H16.4817H16.497H16.5124H16.5277H16.543H16.5584H16.5737H16.5889H16.6042H16.6195H16.6347H16.65H16.6652H16.6804H16.6956H16.7108H16.726H16.7412H16.7564H16.7715H16.7867H16.8018H16.8169H16.832H16.8471H16.8622H16.8772H16.8923H16.9073H16.9223H16.9373H16.9523H16.9673H16.9823H16.9972H17.0122H17.0271H17.042H17.0569H17.0718H17.0867H17.1016H17.1164H17.1312H17.1461H17.1609H17.1756H17.1904H17.2052H17.2199H17.2347H17.2494H17.2641H17.2788H17.2934H17.3081H17.3227H17.3373H17.3519H17.3665H17.3811H17.3957H17.4102H17.4247H17.4393H17.4538H17.4682H17.4827H17.4971H17.5116H17.526H17.5404H17.5548H17.5691H17.5835H17.5978H17.6121H17.6264H17.6407H17.6549H17.6692H17.6834H17.6976H17.7118H17.726H17.7401H17.7543H17.7684H17.7825H17.7965H17.8106H17.8247H17.8387H17.8527H17.8667H17.8806H17.8946H17.9085H17.9224H17.9363H17.9502H17.964H17.9779H17.9917H18.0055H18.0193H18.033H18.0467H18.0605H18.0741H18.0878H18.1015H18.1151H18.1287H18.1423H18.1559H18.1694H18.183H18.1965H18.21H18.2234H18.2369H18.2503H18.2637H18.2771H18.2904H18.3038H18.3171H18.3304H18.3437H18.3569H18.3701H18.3833H18.3965H18.4097H18.4228H18.4359H18.449H18.4621H18.4751H18.4882H18.5012H18.5142H18.5271H18.54H18.5529H18.5658H18.5787H18.5915H18.6044H18.6171H18.6299H18.6427H18.6554H18.6681H18.6807H18.6934H18.706H18.7186H18.7312H18.7437H18.7562H18.7687H18.7812H18.7937H18.8061H18.8185H18.8309H18.8432H18.8555H18.8678H18.8801H18.8923H18.9046H18.9168H18.9289H18.9411H18.9532H18.9653H18.9773H18.9894H19.0014H19.0134H19.0253H19.0372H19.0491H19.061H19.0729H19.0847H19.0965H19.1082H19.12H19.1317H19.1434H19.155H19.1667H19.1783H19.1898H19.2014H19.2129H19.2244H19.2358H19.2473H19.2587H19.27H19.2814H19.2927H19.304H19.3153H19.3265H19.3377H19.3489H19.36H19.3711H19.3822H19.3932H19.4043H19.4153H19.4262H19.4372H19.4481H19.4589H19.4698H19.4806H19.4914H19.5021H19.5128H19.5235H19.5342H19.5448H19.5554H19.566H19.5765H19.587H19.5975H19.608H19.6184H19.6287H19.6391H19.6494H19.6597H19.6699H19.6802H19.6904H19.7005H19.7106H19.7207H19.7308H19.7408H19.7508H19.7608H19.7707H19.7806H19.7905H19.8003H19.8101H19.8198H19.8296H19.8393H19.8489C21.0698 22 21.9881 20.9252 21.8446 19.7381C21.6972 18.5189 21.4998 16.6203 21.4998 15.25C21.4998 13.6226 21.7776 11.2603 21.9174 10.18C22.0053 9.50081 21.7437 8.81822 21.2114 8.3746L13.2801 1.76525ZM11.9998 3.3017L19.931 9.91105C19.9315 9.91143 19.935 9.91475 19.9339 9.92337C19.7953 10.995 19.4998 13.4769 19.4998 15.25C19.4998 16.7527 19.7115 18.7575 19.8591 19.9781C19.8593 19.9799 19.8594 19.9814 19.8594 19.9825C19.8594 19.9835 19.8593 19.9842 19.8593 19.9847C19.8591 19.9859 19.8589 19.9871 19.8585 19.9882C19.8577 19.9907 19.8561 19.994 19.8535 19.9969C19.8522 19.9984 19.8511 19.9993 19.8504 19.9998L19.8502 20L19.8489 20H19.8393H19.8296H19.8198H19.8101H19.8003H19.7905H19.7806H19.7707H19.7608H19.7508H19.7408H19.7308H19.7207H19.7106H19.7005H19.6904H19.6802H19.6699H19.6597H19.6494H19.6391H19.6287H19.6184H19.608H19.5975H19.587H19.5765H19.566H19.5554H19.5448H19.5342H19.5235H19.5128H19.5021H19.4914H19.4806H19.4698H19.4589H19.4481H19.4372H19.4262H19.4153H19.4043H19.3932H19.3822H19.3711H19.36H19.3489H19.3377H19.3265H19.3153H19.304H19.2927H19.2814H19.27H19.2587H19.2473H19.2358H19.2244H19.2129H19.2014H19.1898H19.1783H19.1667H19.155H19.1434H19.1317H19.12H19.1082H19.0965H19.0847H19.0729H19.061H19.0491H19.0372H19.0253H19.0134H19.0014H18.9894H18.9773H18.9653H18.9532H18.9411H18.9289H18.9168H18.9046H18.8923H18.8801H18.8678H18.8555H18.8432H18.8309H18.8185H18.8061H18.7937H18.7812H18.7687H18.7562H18.7437H18.7312H18.7186H18.706H18.6934H18.6807H18.6681H18.6554H18.6427H18.6299H18.6171H18.6044H18.5915H18.5787H18.5658H18.5529H18.54H18.5271H18.5142H18.5012H18.4882H18.4751H18.4621H18.449H18.4359H18.4228H18.4097H18.3965H18.3833H18.3701H18.3569H18.3437H18.3304H18.3171H18.3038H18.2904H18.2771H18.2637H18.2503H18.2369H18.2234H18.21H18.1965H18.183H18.1694H18.1559H18.1423H18.1287H18.1151H18.1015H18.0878H18.0741H18.0605H18.0467H18.033H18.0193H18.0055H17.9917H17.9779H17.964H17.9502H17.9363H17.9224H17.9085H17.8946H17.8806H17.8667H17.8527H17.8387H17.8247H17.8106H17.7965H17.7825H17.7684H17.7543H17.7401H17.726H17.7118H17.6976H17.6834H17.6692H17.6549H17.6407H17.6264H17.6121H17.5978H17.5835H17.5691H17.5548H17.5404H17.526H17.5116H17.4971H17.4827H17.4682H17.4538H17.4393H17.4247H17.4102H17.3957H17.3811H17.3665H17.3519H17.3373H17.3227H17.3081H17.2934H17.2788H17.2641H17.2494H17.2347H17.2199H17.2052H17.1904H17.1756H17.1609H17.1461H17.1312H17.1164H17.1016H17.0867H17.0718H17.0569H17.042H17.0271H17.0122H16.9972H16.9823H16.9673H16.9523H16.9373H16.9223H16.9073H16.8923H16.8772H16.8622H16.8471H16.832H16.8169H16.8018H16.7867H16.7715H16.7564H16.7412H16.726H16.7108H16.6956H16.6804H16.6652H16.65H16.6347H16.6195H16.6042H16.5889H16.5737H16.5584H16.543H16.5277H16.5124H16.497H16.4817H16.4663H16.4509H16.4356H16.4202H16.4048H16.3893H16.3739H16.3585H16.343H16.3276H16.3121H16.2966H16.2812H16.2657H16.2502H16.2347H16.2191H16.2036H16.1881H16.1725H16.157H16.1414H16.1258H16.1102H16.0947H16.0791H16.0634H16.0478H16.0322H16.0166H16.0009H15.9853H15.9696H15.954H15.9383H15.9226H15.9069H15.8913H15.8756H15.8599H15.8441H15.8284H15.8127H15.797H15.7812H15.7655H15.7497H15.734H15.7182H15.7024H15.6867H15.6709H15.6551H15.6393H15.6235H15.6077H15.5919H15.5761H15.5602H15.5444H15.5286H15.5127H15.4969H15.481H15.4652H15.4493H15.4335H15.4176H15.4017H15.3859H15.37H15.3541H15.3382H15.3223H15.3064H15.2905H15.2746H15.2587H15.2428H15.2269H15.211H15.1951H15.1791H15.1632H15.1473H15.1313H15.1154H15.0995H15.0835H15.0676H15.0516H15.0357H15.0197H15.0038H14.9878H14.9719H14.9559H14.94H14.924H14.908H14.8921H14.8761H14.8601H14.8442H14.8282H14.8122H14.7962H14.7803H14.7643H14.7483H14.7323H14.7164H14.7004H14.6844H14.6684H14.6524H14.6365H14.6205H14.6045H14.5885H14.5725H14.5566H14.5406H14.5246H14.5086H14.4926H14.4767H14.4607H14.4447H14.4287H14.4128H14.3968H14.3808H14.3649H14.3489H14.3329H14.317H14.301H14.285H14.2691H14.2531H14.2372H14.2212H14.2053H14.1893H14.1734H14.1574H14.1415H14.1255H14.1096H14.0937H14.0777H14.0618H14.0459H14.03H14.0141H13.9981H13.9822H13.9663H13.9504H13.9345H13.9186H13.9027H13.8869H13.871H13.8551H13.8392H13.8233H13.8075H13.7916H13.7758H13.7599H13.7441H13.7282H13.7124H13.6966H13.6807H13.6649H13.6491H13.6333H13.6175H13.6017H13.5859H13.5701H13.5543H13.5385H13.5228H13.507H13.4912H13.4755H13.4597H13.444H13.4283H13.4125H13.3968H13.3811H13.3654H13.3497H13.334H13.3183H13.3027H13.287H13.2713H13.2557H13.24H13.2244H13.2088H13.1931H13.1775H13.1619H13.1463H13.1307H13.1151H13.0996H13.084H13.0684H13.0529H13.0374H13.0218H13.0063H12.9908H12.9753H12.9598H12.9443H12.9288H12.9134H12.8979H12.8825H12.867H12.8516H12.8362H12.8208H12.8054H12.79H12.7746H12.7593H12.7439H12.7286H12.7133H12.6979H12.6826H12.6673H12.652H12.6368H12.6215H12.6062H12.591H12.5758H12.5605H12.5453H12.5301H12.5149H12.4998H12.484H12.4682H12.4524H12.4365H12.4207H12.4048H12.3889H12.3729H12.357H12.341H12.325H12.3089H12.2929H12.2768H12.2607H12.2446H12.2284H12.2122H12.196H12.1798H12.1636H12.1473H12.131H12.1147H12.0984H12.082H12.0657H12.0493H12.0328H12.0164H12H11.9835H11.967H11.9505H11.9339H11.9174H11.9008H11.8842H11.8676H11.8509H11.8343H11.8176H11.8009H11.7842H11.7674H11.7507H11.7339H11.7171H11.7003H11.6835H11.6666H11.6497H11.6328H11.6159H11.599H11.5821H11.5651H11.5482H11.5312H11.5142H11.4971H11.4801H11.463H11.446H11.4289H11.4118H11.3946H11.3775H11.3603H11.3432H11.326H11.3088H11.2916H11.2743H11.2571H11.2398H11.2225H11.2052H11.1879H11.1706H11.1533H11.1359H11.1186H11.1012H11.0838H11.0664H11.049H11.0315H11.0141H10.9966H10.9792H10.9617H10.9442H10.9267H10.9091H10.8916H10.8741H10.8565H10.8389H10.8213H10.8038H10.7861H10.7685H10.7509H10.7333H10.7156H10.6979H10.6803H10.6626H10.6449H10.6272H10.6095H10.5918H10.574H10.5563H10.5385H10.5208H10.503H10.4852H10.4674H10.4496H10.4318H10.414H10.3962H10.3784H10.3605H10.3427H10.3248H10.3069H10.2891H10.2712H10.2533H10.2354H10.2175H10.1996H10.1817H10.1638H10.1458H10.1279H10.1099H10.092H10.074H10.0561H10.0381H10.0201H10.0022H9.98418H9.96619H9.9482H9.9302H9.9122H9.89419H9.87617H9.85816H9.84013H9.82211H9.80408H9.78604H9.768H9.74996H9.73192H9.71387H9.69581H9.67776H9.6597H9.64164H9.62357H9.60551H9.58744H9.56936H9.55129H9.53321H9.51513H9.49705H9.47897H9.46089H9.4428H9.42472H9.40663H9.38854H9.37045H9.35236H9.33427H9.31618H9.29809H9.28H9.26191H9.24382H9.22572H9.20763H9.18954H9.17145H9.15336H9.13527H9.11719H9.0991H9.08101H9.06293H9.04485H9.02677H9.00869H8.99061H8.97254H8.95446H8.93639H8.91832H8.90026H8.8822H8.86414H8.84608H8.82803H8.80998H8.79193H8.77388H8.75584H8.73781H8.71978H8.70175H8.68372H8.6657H8.64769H8.62968H8.61167H8.59367H8.57568H8.55769H8.5397H8.52172H8.50374H8.48578H8.46781H8.44986H8.4319H8.41396H8.39602H8.37809H8.36016H8.34224H8.32433H8.30643H8.28853H8.27064H8.25276H8.23488H8.21701H8.19915H8.1813H8.16346H8.14562H8.12779H8.10997H8.09216H8.07436H8.05657H8.03879H8.02101H8.00325H7.98549H7.96774H7.95001H7.93228H7.91456H7.89686H7.87916H7.86147H7.8438H7.82613H7.80848H7.79084H7.7732H7.75558H7.73797H7.72037H7.70279H7.68521H7.66765H7.6501H7.63256H7.61503H7.59752H7.58001H7.56252H7.54505H7.52758H7.51013H7.4927H7.47527H7.45786H7.44046H7.42308H7.40571H7.38835H7.37101H7.35368H7.33637H7.31907H7.30179H7.28452H7.26727H7.25003H7.2328H7.21559H7.1984H7.18122H7.16406H7.14692H7.12979H7.11267H7.09557H7.07849H7.06143H7.04438H7.02735H7.01033H6.99334H6.97636H6.95939H6.94245H6.92552H6.90861H6.89172H6.87484H6.85799H6.84115H6.82433H6.80753H6.79075H6.77398H6.75724H6.74051H6.72381H6.70712H6.69045H6.67381H6.65718H6.64057H6.62398H6.60741H6.59087H6.57434H6.55783H6.54135H6.52488H6.50844H6.49201H6.47561H6.45923H6.44287H6.42653H6.41022H6.39392H6.37765H6.3614H6.34517H6.32897H6.31279H6.29663H6.28049H6.26437H6.24828H6.23222H6.21617H6.20015H6.18415H6.16818H6.15223H6.1363H6.1204H6.10452H6.08867H6.07284H6.05704H6.04126H6.02551H6.00978H5.99408H5.9784H5.96274H5.94712H5.93152H5.91594H5.90039H5.88487H5.86937H5.8539H5.83846H5.82304H5.80765H5.79229H5.77695H5.76164H5.74636H5.73111H5.71588H5.70068H5.68551H5.67037H5.65525H5.64017H5.62511H5.61008H5.59508H5.58011H5.56517H5.55025H5.53537H5.52051H5.50569H5.49089H5.47613H5.46139H5.44669H5.43201H5.41736H5.40275H5.38817H5.37361H5.35909H5.3446H5.33014H5.31571H5.30131H5.28694H5.27261H5.25831H5.24403H5.2298H5.21559H5.20141H5.18727H5.17316H5.15909H5.14504H5.13103H5.11705H5.10311H5.0892H5.07532H5.06148H5.04767H5.03389H5.02015H5.00644H4.99277H4.97913H4.96553H4.95196H4.93842H4.92492H4.91146H4.89803H4.88463H4.87128H4.85795H4.84467H4.83142H4.8182H4.80502H4.79188H4.77877H4.76571H4.75267H4.73968H4.72672H4.7138H4.70091H4.68807H4.67526H4.66249H4.64975H4.63706H4.6244H4.61178H4.5992H4.58666H4.57416H4.56169H4.54926H4.53688H4.52453H4.51222H4.49995H4.48772H4.47553H4.46338H4.45127H4.4392H4.42717H4.41518H4.40323H4.39133H4.37946H4.36763H4.35585H4.3441H4.3324H4.32074H4.30912H4.29754H4.286H4.27451H4.26306H4.25165H4.24028H4.22895H4.21767H4.20643H4.19524H4.18408H4.17297H4.1619H4.15088L4.14949 20C4.1488 19.9995 4.14757 19.9985 4.14608 19.9968C4.14345 19.9938 4.14179 19.9906 4.14098 19.988C4.14062 19.9869 4.1404 19.9858 4.14028 19.9846C4.14018 19.9835 4.14008 19.9814 4.14049 19.9781C4.28801 18.7575 4.49977 16.7527 4.49977 15.25C4.49977 13.4769 4.20429 10.995 4.06563 9.92337C4.06452 9.91475 4.06808 9.91143 4.06855 9.91105L11.9998 3.3017ZM11.9998 11C9.79063 11 7.99977 12.7908 7.99977 15V20H9.99977V15C9.99977 13.8954 10.8952 13 11.9998 13C13.1043 13 13.9998 13.8954 13.9998 15V20H15.9998V15C15.9998 12.7908 14.2089 11 11.9998 11Z" fill="white"/>
</svg>
