<svg width="50" height="50" viewBox="0 0 50 50" fill="none" xmlns="http://www.w3.org/2000/svg">
<path d="M32.888 17.8188H17.1101C16.7297 17.8188 16.3649 17.97 16.0959 18.239C15.8269 18.508 15.6758 18.8728 15.6758 19.2532V19.8456L24.999 25.583L34.3223 19.8456V19.2532C34.3223 18.8728 34.1712 18.508 33.9022 18.239C33.6332 17.97 33.2684 17.8188 32.888 17.8188Z" fill="#374FC7"/>
<path d="M15.6758 21.548V30.7465C15.6758 31.1269 15.8269 31.4917 16.0959 31.7607C16.3649 32.0297 16.7297 32.1808 17.1101 32.1808H32.888C33.2684 32.1808 33.6332 32.0297 33.9022 31.7607C34.1712 31.4917 34.3223 31.1269 34.3223 30.7465V21.548L24.999 27.2854L15.6758 21.548Z" fill="#374FC7"/>
<rect x="1" y="1" width="48" height="48" rx="24" stroke="#374FC7" stroke-width="2"/>
</svg>
