<svg width="43" height="40" viewBox="0 0 43 40" fill="none" xmlns="http://www.w3.org/2000/svg">
<path d="M15.055 9.85508C15.0548 9.85486 15.0548 9.85454 15.0549 9.85426C16.0668 7.57156 18.3379 6.08948 20.8354 6.08948C24.3205 6.08948 27.1556 8.92412 27.1556 12.4097C27.1556 14.9899 25.5863 17.3099 23.1923 18.2725C22.3199 18.6221 21.7899 19.4147 21.7899 20.3529L21.7897 20.5037C21.7891 21.0295 21.3627 21.4554 20.8369 21.4554C20.3107 21.4554 19.8841 21.0288 19.8841 20.5026V20.3529C19.8759 18.6325 20.8904 17.1452 22.4841 16.5051C24.1541 15.833 25.2457 14.2082 25.2457 12.4097C25.2457 9.96885 23.2767 7.99984 20.8359 7.99984C19.4219 7.99984 18.1246 8.66529 17.3034 9.7643C16.9733 10.206 16.3924 10.444 15.8878 10.2218L15.0553 9.85523C15.0552 9.85519 15.0551 9.85514 15.055 9.85508ZM20.8848 22.7983C21.383 22.7983 21.7868 23.2025 21.7863 23.7007C21.7858 24.1982 21.3823 24.6013 20.8848 24.6013H20.7851C20.2872 24.6013 19.8836 24.1977 19.8836 23.6998C19.8836 23.2019 20.2872 22.7983 20.7851 22.7983H20.8848Z" fill="#374FC7"/>
<path d="M33.996 39.083C33.7725 39.4248 33.3103 39.5132 32.9765 39.278L22.3277 31.7755C21.6534 31.3004 20.8487 31.0454 20.0238 31.0454H4.14648C1.93734 31.0454 0.146484 29.2545 0.146484 27.0454V4.11975C0.146484 1.91061 1.93735 0.119751 4.14648 0.119751H38.0638C40.2729 0.119751 42.0638 1.91061 42.0638 4.11975V27.0454C42.0638 29.2545 40.2729 31.0454 38.0638 31.0454H34.7049C34.3191 31.0454 34.0063 30.7326 34.0063 30.3468C34.0063 29.9609 34.3191 29.6481 34.7049 29.6481H37.7855C39.3509 29.6481 40.6199 28.3791 40.6199 26.8137V4.56357C40.6199 2.90671 39.2768 1.56357 37.6199 1.56357H4.5903C2.93345 1.56357 1.5903 2.90671 1.5903 4.56357V26.6481C1.5903 28.305 2.93345 29.6481 4.5903 29.6481H20.4519C21.2712 29.6481 22.0708 29.8998 22.7425 30.369L33.8053 38.0966C34.1249 38.3199 34.2094 38.7567 33.996 39.083Z" fill="#374FC7"/>
</svg>
