<svg width="20" height="20" viewBox="0 0 20 20" fill="none" xmlns="http://www.w3.org/2000/svg">
<path fill-rule="evenodd" clip-rule="evenodd" d="M11.2175 2.08646C14.6675 2.08646 17.4643 4.88327 17.4643 8.33331C17.4643 11.7834 14.6675 14.5802 11.2175 14.5802C7.76742 14.5802 4.97061 11.7834 4.97061 8.33331C4.97061 4.88327 7.76742 2.08646 11.2175 2.08646ZM19.5508 8.33331C19.5508 3.73095 15.8198 0 11.2175 0C6.6151 0 2.88415 3.73095 2.88415 8.33331C2.88415 12.9357 6.6151 16.6666 11.2175 16.6666C15.8198 16.6666 19.5508 12.9357 19.5508 8.33331Z" fill="#B3B3B3"/>
<path fill-rule="evenodd" clip-rule="evenodd" d="M1.47107 20L7.5 13.971L6.02895 12.5L1.71661e-05 18.5289L1.47107 20Z" fill="#B3B3B3"/>
</svg>
