<svg width="13" height="8" viewBox="0 0 13 8" fill="none" xmlns="http://www.w3.org/2000/svg">
<path fill-rule="evenodd" clip-rule="evenodd" d="M6.50745 7.30394H7.24143C7.24143 7.30394 7.46308 7.27771 7.57572 7.1522C7.67927 7.03605 7.67746 6.82062 7.67746 6.82062C7.67746 6.82062 7.66292 5.80529 8.11893 5.65542C8.56949 5.50743 9.14904 6.63704 9.76129 7.06977C10.2246 7.39948 10.577 7.32642 10.577 7.32642L12.2176 7.30394C12.2176 7.30394 13.0751 7.24961 12.6681 6.55274C12.6354 6.49654 12.432 6.03945 11.4491 5.09905C10.4208 4.11556 10.5589 4.2748 11.7979 2.57196C12.5519 1.53602 12.8534 0.902839 12.759 0.631209C12.6681 0.374566 12.114 0.442005 12.114 0.442005L10.2682 0.453245C10.2682 0.453245 10.1301 0.434512 10.0302 0.496331C9.93025 0.55815 9.86667 0.700522 9.86667 0.700522C9.86667 0.700522 9.57417 1.50417 9.18538 2.18606C8.36238 3.62476 8.03354 3.70156 7.8991 3.61164C7.58662 3.40371 7.66474 2.77428 7.66474 2.32843C7.66474 0.932812 7.87003 0.352086 7.26505 0.200348C7.0652 0.151642 6.91623 0.117923 6.4039 0.112303C5.74441 0.106683 5.18848 0.114176 4.87236 0.275281C4.66161 0.380186 4.49992 0.616223 4.59803 0.631209C4.71975 0.646196 4.99772 0.708015 5.14306 0.912206C5.332 1.17822 5.32655 1.77393 5.32655 1.77393C5.32655 1.77393 5.43556 3.41682 5.0722 3.62101C4.82331 3.75964 4.48175 3.47489 3.74959 2.1692C3.37352 1.50042 3.0901 0.760468 3.0901 0.760468C3.0901 0.760468 3.0356 0.621843 2.9375 0.548784C2.81941 0.458865 2.65408 0.430765 2.65408 0.430765L0.899077 0.442005C0.899077 0.442005 0.637462 0.449499 0.539356 0.567517C0.453967 0.672422 0.533905 0.889726 0.533905 0.889726C0.533905 0.889726 1.90557 4.20361 3.46073 5.87273C4.88871 7.40322 6.50745 7.30394 6.50745 7.30394Z" fill="#FEFEFE"/>
</svg>
