<svg width="43" height="40" viewBox="0 0 43 40" fill="none" xmlns="http://www.w3.org/2000/svg">
<path d="M21.937 19.313C21.3866 19.313 20.9405 18.8668 20.9405 18.3164L20.9405 9.32381C20.9405 8.77343 21.3866 8.32726 21.937 8.32726C22.4874 8.32726 22.9336 8.77343 22.9336 9.32381L22.9336 18.3164C22.9336 18.8668 22.4874 19.313 21.937 19.313Z" fill="#374FC7"/>
<path d="M21.9331 23.3169C21.3869 23.3169 20.9405 22.8741 20.9405 22.3279C20.9405 21.7817 21.3869 21.3389 21.9331 21.3389C22.4793 21.3389 22.9258 21.7817 22.9258 22.3279C22.9258 22.8741 22.4793 23.3169 21.9331 23.3169Z" fill="#374FC7"/>
<path d="M8.99328 39.2206C9.21673 39.5624 9.679 39.6508 10.0128 39.4156L20.6616 31.913C21.3359 31.438 22.1406 31.183 22.9654 31.183H38.8428C41.0519 31.183 42.8428 29.3921 42.8428 27.183V4.25732C42.8428 2.04818 41.0519 0.257324 38.8428 0.257324H4.9255C2.71636 0.257324 0.925495 2.04819 0.925495 4.25732V27.183C0.925495 29.3921 2.71636 31.183 4.9255 31.183H8.28431C8.67015 31.183 8.98293 30.8702 8.98293 30.4843C8.98293 30.0985 8.67015 29.7857 8.28431 29.7857H5.20372C3.63832 29.7857 2.36931 28.5167 2.36931 26.9513V4.70114C2.36931 3.04429 3.71246 1.70114 5.36931 1.70114H38.399C40.0558 1.70114 41.399 3.04429 41.399 4.70114V26.7857C41.399 28.4426 40.0558 29.7857 38.399 29.7857H22.5374C21.718 29.7857 20.9185 30.0373 20.2468 30.5065L9.184 38.2342C8.86436 38.4575 8.77991 38.8943 8.99328 39.2206Z" fill="#374FC7"/>
</svg>
