<svg width="50" height="50" viewBox="0 0 50 50" fill="none" xmlns="http://www.w3.org/2000/svg">
<path d="M25.0001 33.3679C24.8369 33.1488 24.6297 32.8677 24.391 32.5372C23.7861 31.6994 22.9804 30.5468 22.1755 29.2851C21.3695 28.0217 20.5703 26.6582 19.9743 25.3971C19.3693 24.1171 19.0078 23.0116 19.0078 22.2409C19.0078 18.9653 21.6867 16.3027 25.0001 16.3027C28.3135 16.3027 30.9924 18.9653 30.9924 22.2409C30.9924 23.0116 30.6309 24.1171 30.0259 25.3971C29.4299 26.6582 28.6307 28.0217 27.8247 29.2851C27.0199 30.5468 26.2141 31.6994 25.6092 32.5372C25.3705 32.8677 25.1633 33.1488 25.0001 33.3679ZM25.0001 24.5804C26.2972 24.5804 27.3551 23.5373 27.3551 22.2409C27.3551 20.9445 26.2972 19.9014 25.0001 19.9014C23.7031 19.9014 22.6452 20.9445 22.6452 22.2409C22.6452 23.5373 23.7031 24.5804 25.0001 24.5804Z" fill="#374FC7" stroke="#374FC7"/>
<rect x="1" y="1" width="48" height="48" rx="24" stroke="#374FC7" stroke-width="2"/>
</svg>
