<svg width="50" height="50" viewBox="0 0 50 50" fill="none" xmlns="http://www.w3.org/2000/svg">
<path d="M22.4325 20.1499L22.4393 20.1589L22.4465 20.1675C22.6278 20.3851 22.6102 20.689 22.4546 20.8996L20.5898 22.7644C20.4217 22.9241 20.36 23.1283 20.3517 23.3082C20.3436 23.4824 20.3829 23.6538 20.4341 23.8042C20.5369 24.1059 20.731 24.4453 20.9646 24.7884C21.4376 25.4828 22.1499 26.3033 22.9037 27.0617C23.6578 27.8205 24.4751 28.5388 25.1666 29.0214C25.5085 29.2599 25.8448 29.4588 26.1421 29.5688C26.29 29.6235 26.4574 29.6675 26.6275 29.6674C26.804 29.6672 27.0179 29.6177 27.1884 29.4472L29.0814 27.5543C29.157 27.4786 29.2826 27.4238 29.4373 27.4183C29.5946 27.4127 29.7261 27.4602 29.7988 27.5183L29.7987 27.5185L29.8086 27.526L33.4387 30.2849C33.5586 30.3875 33.593 30.4842 33.5989 30.5549C33.6049 30.6272 33.5842 30.7142 33.5206 30.8015L31.5049 32.8172L31.2892 33.0328C30.7982 33.5081 30.0941 33.6787 29.1916 33.576C28.2842 33.4728 27.2428 33.0978 26.1848 32.5688C24.0723 31.5125 22.0247 29.9094 21.076 28.9617C20.1219 27.9714 18.4996 25.9028 17.4348 23.782C16.9012 22.7193 16.5247 21.6767 16.4248 20.7698C16.3276 19.8884 16.4954 19.1962 16.9631 18.7055L17.1379 18.5889L17.183 18.5589L17.2205 18.52L19.1823 16.4855C19.3178 16.353 19.5499 16.3695 19.6706 16.5158L22.4325 20.1499Z" fill="#374FC7" stroke="#374FC7"/>
<rect x="1" y="1" width="48" height="48" rx="24" stroke="#374FC7" stroke-width="2"/>
</svg>
