<svg width="15" height="16" viewBox="0 0 15 16" fill="none" xmlns="http://www.w3.org/2000/svg">
<path fill-rule="evenodd" clip-rule="evenodd" d="M3.43288 0.257232L5.71285 3.25719C6.01285 3.61719 5.95285 4.09718 5.71285 4.39718L4.15287 5.95716C3.43288 6.61715 8.35282 11.5371 9.01281 10.8771L10.5728 9.31712C10.8728 9.01712 11.4128 9.01712 11.7128 9.25712L14.7127 11.5371C15.0727 11.8371 15.0727 12.2571 14.8327 12.5571L13.1528 14.2371L12.9728 14.4171C10.8728 16.457 5.59285 12.6771 3.97287 11.0571C2.35289 9.37712 -1.48706 4.09718 0.612916 1.99721L0.792914 1.87721L2.41289 0.197233C2.71289 -0.102763 3.19288 -0.0427642 3.43288 0.257232Z" fill="#B3B3B3"/>
</svg>
