<svg width="15" height="12" viewBox="0 0 15 12" fill="none" xmlns="http://www.w3.org/2000/svg">
<path d="M13.8462 0H1.15385C0.847827 0 0.554342 0.121566 0.337954 0.337954C0.121566 0.554342 0 0.847827 0 1.15385V1.63038L7.5 6.24577L15 1.63038V1.15385C15 0.847827 14.8784 0.554342 14.662 0.337954C14.4457 0.121566 14.1522 0 13.8462 0Z" fill="#B3B3B3"/>
<path d="M0 3V10.3996C0 10.7056 0.121566 10.9991 0.337954 11.2155C0.554342 11.4319 0.847827 11.5535 1.15385 11.5535H13.8462C14.1522 11.5535 14.4457 11.4319 14.662 11.2155C14.8784 10.9991 15 10.7056 15 10.3996V3L7.5 7.61538L0 3Z" fill="#B3B3B3"/>
</svg>
