<svg width="12" height="12" viewBox="0 0 12 12" fill="none" xmlns="http://www.w3.org/2000/svg">
<path d="M6.2501 1.19746C7.69757 1.19746 7.86871 1.20364 8.43986 1.22839C8.96771 1.25313 9.25432 1.34179 9.44608 1.41602C9.69763 1.51293 9.87908 1.63046 10.0688 1.82016C10.2585 2.00985 10.376 2.1913 10.4729 2.44286C10.5471 2.63462 10.6358 2.92122 10.6606 3.44907C10.6853 4.02023 10.6915 4.19137 10.6915 5.63883C10.6915 7.08424 10.6853 7.25538 10.6606 7.82859C10.6358 8.35645 10.5471 8.64305 10.4729 8.83275C10.376 9.08637 10.2585 9.26782 10.0688 9.45545C9.87908 9.64515 9.69763 9.76268 9.44608 9.86165C9.25432 9.93588 8.96771 10.0245 8.43986 10.0472C7.86871 10.074 7.69757 10.0802 6.2501 10.0802C4.80469 10.0802 4.63149 10.074 4.06034 10.0472C3.53249 10.0245 3.24588 9.93588 3.05619 9.86165C2.80257 9.76268 2.62112 9.64515 2.43349 9.45545C2.24379 9.26782 2.12626 9.08637 2.02729 8.83275C1.95306 8.64305 1.8644 8.35645 1.84171 7.82859C1.81491 7.25538 1.80872 7.08424 1.80872 5.63883C1.80872 4.19137 1.81491 4.02023 1.84171 3.44907C1.8644 2.92122 1.95306 2.63462 2.02729 2.44286C2.12626 2.1913 2.24379 2.00985 2.43142 1.82016C2.62112 1.63046 2.80257 1.51293 3.05619 1.41602C3.24588 1.34179 3.53249 1.25313 4.06034 1.22839C4.63149 1.20364 4.80469 1.19746 6.2501 1.19746ZM6.2501 0.222168C4.77995 0.222168 4.59438 0.228354 4.01704 0.253097C3.4397 0.279902 3.04588 0.372688 2.70154 0.506713C2.34482 0.644862 2.04378 0.828373 1.74274 1.13148C1.4417 1.43252 1.25613 1.73356 1.11798 2.09027C0.983955 2.43461 0.891169 2.82844 0.866426 3.40577C0.839621 3.98311 0.833435 4.16662 0.833435 5.63883C0.833435 7.10898 0.839621 7.29456 0.866426 7.87189C0.891169 8.44923 0.983955 8.84306 1.11798 9.1874C1.25613 9.54411 1.4417 9.84515 1.74274 10.1462C2.04378 10.4472 2.34482 10.6328 2.70154 10.771C3.04588 10.905 3.4397 10.9978 4.01704 11.0225C4.59438 11.0493 4.77995 11.0555 6.2501 11.0555C7.72231 11.0555 7.90582 11.0493 8.48316 11.0225C9.0605 10.9978 9.45433 10.905 9.79867 10.771C10.1554 10.6328 10.4564 10.4472 10.7575 10.1462C11.0585 9.84515 11.2441 9.54411 11.3822 9.1874C11.5162 8.84306 11.609 8.44923 11.6358 7.87189C11.6606 7.29456 11.6668 7.10898 11.6668 5.63883C11.6668 4.16662 11.6606 3.98311 11.6358 3.40577C11.609 2.82844 11.5162 2.43461 11.3822 2.09027C11.2441 1.73356 11.0585 1.43252 10.7575 1.13148C10.4564 0.828373 10.1554 0.644862 9.79867 0.506713C9.45433 0.372688 9.0605 0.279902 8.48316 0.253097C7.90582 0.228354 7.72231 0.222168 6.2501 0.222168Z" fill="#FEFEFE"/>
<path d="M6.24985 2.85742C4.71372 2.85742 3.46832 4.10282 3.46832 5.63895C3.46832 7.17508 4.71372 8.42048 6.24985 8.42048C7.78598 8.42048 9.03139 7.17508 9.03139 5.63895C9.03139 4.10282 7.78598 2.85742 6.24985 2.85742ZM6.24985 7.4452C5.25188 7.4452 4.44361 6.63692 4.44361 5.63895C4.44361 4.64098 5.25188 3.83271 6.24985 3.83271C7.24782 3.83271 8.0561 4.64098 8.0561 5.63895C8.0561 6.63692 7.24782 7.4452 6.24985 7.4452Z" fill="#FEFEFE"/>
<path d="M9.79253 2.74618C9.79253 3.10702 9.5018 3.39775 9.14302 3.39775C8.78219 3.39775 8.49146 3.10702 8.49146 2.74618C8.49146 2.38741 8.78219 2.09668 9.14302 2.09668C9.5018 2.09668 9.79253 2.38741 9.79253 2.74618Z" fill="#FEFEFE"/>
</svg>
