<svg width="139" height="62" viewBox="0 0 139 62" fill="none" xmlns="http://www.w3.org/2000/svg">
<path d="M9.92954 41.7811H29.4086V49.2627H0.864014V0.53125H9.92954V41.7811Z" fill="black"/>
<path d="M48.09 14.1464C50.6512 14.1464 52.9766 14.562 55.066 15.3933C57.1779 16.2246 58.9753 17.4041 60.4582 18.9319C61.9635 20.4597 63.1205 22.3245 63.9293 24.5263C64.7382 26.728 65.1426 29.1882 65.1426 31.9067C65.1426 34.6477 64.7382 37.1191 63.9293 39.3209C63.1205 41.5227 61.9635 43.3987 60.4582 44.949C58.9753 46.4992 57.1779 47.69 55.066 48.5213C52.9766 49.3525 50.6512 49.7682 48.09 49.7682C45.5062 49.7682 43.1584 49.3525 41.0465 48.5213C38.9346 47.69 37.1259 46.4992 35.6206 44.949C34.1378 43.3987 32.9807 41.5227 32.1495 39.3209C31.3406 37.1191 30.9362 34.6477 30.9362 31.9067C30.9362 29.1882 31.3406 26.728 32.1495 24.5263C32.9807 22.3245 34.1378 20.4597 35.6206 18.9319C37.1259 17.4041 38.9346 16.2246 41.0465 15.3933C43.1584 14.562 45.5062 14.1464 48.09 14.1464ZM48.09 43.365C50.9658 43.365 53.0889 42.3989 54.4594 40.4668C55.8524 38.5346 56.5489 35.7037 56.5489 31.9741C56.5489 28.2446 55.8524 25.4025 54.4594 23.4478C53.0889 21.4932 50.9658 20.5159 48.09 20.5159C45.1692 20.5159 43.0011 21.5044 41.5857 23.4815C40.1927 25.4362 39.4962 28.267 39.4962 31.9741C39.4962 35.6812 40.1927 38.5121 41.5857 40.4668C43.0011 42.3989 45.1692 43.365 48.09 43.365Z" fill="black"/>
<path d="M84.1309 14.079C85.6137 14.079 86.9955 14.2363 88.2761 14.5508C89.5792 14.8429 90.7812 15.281 91.8821 15.8651H101.824V18.9656C101.824 19.9542 101.228 20.5608 100.038 20.7855L96.9372 21.3584C97.1619 21.9425 97.3304 22.5604 97.4427 23.2119C97.5775 23.8635 97.6449 24.5487 97.6449 25.2677C97.6449 26.9752 97.2967 28.5254 96.6002 29.9184C95.9262 31.2889 94.9826 32.4572 93.7693 33.4233C92.5561 34.3894 91.1182 35.142 89.4556 35.6812C87.8155 36.198 86.0406 36.4564 84.1309 36.4564C82.8278 36.4564 81.5584 36.3328 80.3227 36.0856C79.2443 36.7372 78.7051 37.4674 78.7051 38.2762C78.7051 38.9727 79.0196 39.4894 79.6487 39.8264C80.3002 40.141 81.154 40.3657 82.2099 40.5005C83.2659 40.6353 84.4679 40.7251 85.8159 40.7701C87.164 40.7925 88.5457 40.8599 89.9611 40.9723C91.3766 41.0846 92.7583 41.2868 94.1063 41.5789C95.4544 41.8485 96.6564 42.2866 97.7123 42.8932C98.7683 43.4998 99.6108 44.3311 100.24 45.3871C100.891 46.4206 101.217 47.7574 101.217 49.3975C101.217 50.9253 100.835 52.4081 100.071 53.846C99.33 55.2839 98.2403 56.5645 96.8024 57.6879C95.387 58.8112 93.6345 59.7099 91.5451 60.384C89.4781 61.0804 87.119 61.4287 84.4679 61.4287C81.8617 61.4287 79.5925 61.1703 77.6603 60.6536C75.7282 60.1593 74.1217 59.4853 72.8411 58.6315C71.5605 57.8002 70.6056 56.8341 69.9765 55.7332C69.3475 54.6323 69.0329 53.4865 69.0329 52.2957C69.0329 50.7006 69.516 49.3525 70.4821 48.2516C71.4706 47.1508 72.8074 46.2745 74.4925 45.623C73.5938 45.1512 72.8748 44.5221 72.3356 43.7357C71.7964 42.9494 71.5268 41.9159 71.5268 40.6353C71.5268 40.1185 71.6166 39.5905 71.7964 39.0513C71.9761 38.4896 72.2457 37.9392 72.6052 37.4C72.9872 36.8608 73.459 36.3553 74.0206 35.8834C74.6048 35.3892 75.2788 34.951 76.0427 34.5691C74.2903 33.6255 72.9085 32.3673 71.8975 30.7946C70.9089 29.2219 70.4147 27.3796 70.4147 25.2677C70.4147 23.5602 70.7517 22.0212 71.4257 20.6507C72.1222 19.2577 73.077 18.0782 74.2903 17.1121C75.5259 16.1235 76.9751 15.3709 78.6377 14.8541C80.3227 14.3374 82.1538 14.079 84.1309 14.079ZM93.5334 50.8129C93.5334 50.1389 93.3312 49.5997 92.9268 49.1953C92.5224 48.7684 91.972 48.4314 91.2755 48.1842C90.579 47.9371 89.7589 47.7574 88.8153 47.645C87.8942 47.5327 86.9056 47.4541 85.8496 47.4091C84.8161 47.3417 83.7377 47.2856 82.6144 47.2406C81.5135 47.1957 80.435 47.1058 79.3791 46.971C78.4579 47.4878 77.7053 48.0944 77.1211 48.7909C76.5594 49.4874 76.2786 50.2962 76.2786 51.2173C76.2786 51.8239 76.4246 52.3856 76.7167 52.9024C77.0312 53.4416 77.5143 53.9022 78.1658 54.2841C78.8399 54.666 79.7049 54.9581 80.7608 55.1603C81.8168 55.385 83.1086 55.4973 84.6364 55.4973C86.1866 55.4973 87.5234 55.3738 88.6468 55.1266C89.7702 54.9019 90.6913 54.5762 91.4103 54.1493C92.1517 53.7449 92.6909 53.2506 93.0279 52.6665C93.3649 52.1048 93.5334 51.4869 93.5334 50.8129ZM84.1309 31.1316C85.1644 31.1316 86.0631 30.9968 86.827 30.7272C87.5909 30.4351 88.2199 30.042 88.7142 29.5477C89.231 29.0534 89.6129 28.458 89.86 27.7615C90.1296 27.0651 90.2645 26.3012 90.2645 25.4699C90.2645 23.7624 89.7477 22.4143 88.7142 21.4258C87.7032 20.4147 86.1754 19.9092 84.1309 19.9092C82.0864 19.9092 80.5474 20.4147 79.5139 21.4258C78.5029 22.4143 77.9973 23.7624 77.9973 25.4699C77.9973 26.2787 78.1209 27.0313 78.368 27.7278C78.6377 28.4243 79.0196 29.0309 79.5139 29.5477C80.0306 30.042 80.6709 30.4351 81.4348 30.7272C82.2212 30.9968 83.1199 31.1316 84.1309 31.1316Z" fill="black"/>
<path d="M121.811 14.1464C124.372 14.1464 126.697 14.562 128.787 15.3933C130.899 16.2246 132.696 17.4041 134.179 18.9319C135.684 20.4597 136.841 22.3245 137.65 24.5263C138.459 26.728 138.863 29.1882 138.863 31.9067C138.863 34.6477 138.459 37.1191 137.65 39.3209C136.841 41.5227 135.684 43.3987 134.179 44.949C132.696 46.4992 130.899 47.69 128.787 48.5213C126.697 49.3525 124.372 49.7682 121.811 49.7682C119.227 49.7682 116.879 49.3525 114.767 48.5213C112.655 47.69 110.847 46.4992 109.341 44.949C107.858 43.3987 106.701 41.5227 105.87 39.3209C105.061 37.1191 104.657 34.6477 104.657 31.9067C104.657 29.1882 105.061 26.728 105.87 24.5263C106.701 22.3245 107.858 20.4597 109.341 18.9319C110.847 17.4041 112.655 16.2246 114.767 15.3933C116.879 14.562 119.227 14.1464 121.811 14.1464ZM121.811 43.365C124.686 43.365 126.81 42.3989 128.18 40.4668C129.573 38.5346 130.269 35.7037 130.269 31.9741C130.269 28.2446 129.573 25.4025 128.18 23.4478C126.81 21.4932 124.686 20.5159 121.811 20.5159C118.89 20.5159 116.722 21.5044 115.306 23.4815C113.913 25.4362 113.217 28.267 113.217 31.9741C113.217 35.6812 113.913 38.5121 115.306 40.4668C116.722 42.3989 118.89 43.365 121.811 43.365Z" fill="black"/>
</svg>
