<svg width="99" height="44" viewBox="0 0 99 44" fill="none" xmlns="http://www.w3.org/2000/svg">
<path d="M21.192 29.672V35H0.864V0.295998H7.32V29.672H21.192ZM34.4959 9.992C36.3199 9.992 37.9759 10.288 39.4639 10.88C40.9679 11.472 42.2479 12.312 43.3039 13.4C44.3759 14.488 45.1999 15.816 45.7759 17.384C46.3519 18.952 46.6399 20.704 46.6399 22.64C46.6399 24.592 46.3519 26.352 45.7759 27.92C45.1999 29.488 44.3759 30.824 43.3039 31.928C42.2479 33.032 40.9679 33.88 39.4639 34.472C37.9759 35.064 36.3199 35.36 34.4959 35.36C32.6559 35.36 30.9839 35.064 29.4799 34.472C27.9759 33.88 26.6879 33.032 25.6159 31.928C24.5599 30.824 23.7359 29.488 23.1439 27.92C22.5679 26.352 22.2799 24.592 22.2799 22.64C22.2799 20.704 22.5679 18.952 23.1439 17.384C23.7359 15.816 24.5599 14.488 25.6159 13.4C26.6879 12.312 27.9759 11.472 29.4799 10.88C30.9839 10.288 32.6559 9.992 34.4959 9.992ZM34.4959 30.8C36.5439 30.8 38.0559 30.112 39.0319 28.736C40.0239 27.36 40.5199 25.344 40.5199 22.688C40.5199 20.032 40.0239 18.008 39.0319 16.616C38.0559 15.224 36.5439 14.528 34.4959 14.528C32.4159 14.528 30.8719 15.232 29.8639 16.64C28.8719 18.032 28.3759 20.048 28.3759 22.688C28.3759 25.328 28.8719 27.344 29.8639 28.736C30.8719 30.112 32.4159 30.8 34.4959 30.8ZM59.9749 22.088C60.7109 22.088 61.3509 21.992 61.8949 21.8C62.4389 21.592 62.8869 21.312 63.2389 20.96C63.6069 20.608 63.8789 20.184 64.0549 19.688C64.2469 19.192 64.3429 18.648 64.3429 18.056C64.3429 16.84 63.9749 15.88 63.2389 15.176C62.5189 14.456 61.4309 14.096 59.9749 14.096C58.5189 14.096 57.4229 14.456 56.6869 15.176C55.9669 15.88 55.6069 16.84 55.6069 18.056C55.6069 18.632 55.6949 19.168 55.8709 19.664C56.0629 20.16 56.3349 20.592 56.6869 20.96C57.0549 21.312 57.5109 21.592 58.0549 21.8C58.6149 21.992 59.2549 22.088 59.9749 22.088ZM66.6709 36.104C66.6709 35.624 66.5269 35.232 66.2389 34.928C65.9509 34.624 65.5589 34.392 65.0629 34.232C64.5669 34.056 63.9829 33.928 63.3109 33.848C62.6549 33.768 61.9509 33.712 61.1989 33.68C60.4629 33.632 59.6949 33.592 58.8949 33.56C58.1109 33.528 57.3429 33.464 56.5909 33.368C55.9349 33.736 55.3989 34.168 54.9829 34.664C54.5829 35.16 54.3829 35.736 54.3829 36.392C54.3829 36.824 54.4869 37.224 54.6949 37.592C54.9189 37.976 55.2629 38.304 55.7269 38.576C56.2069 38.848 56.8229 39.056 57.5749 39.2C58.3269 39.36 59.2469 39.44 60.3349 39.44C61.4389 39.44 62.3909 39.352 63.1909 39.176C63.9909 39.016 64.6469 38.784 65.1589 38.48C65.6869 38.192 66.0709 37.84 66.3109 37.424C66.5509 37.024 66.6709 36.584 66.6709 36.104ZM72.5749 11.216V13.424C72.5749 14.128 72.1509 14.56 71.3029 14.72L69.0949 15.128C69.4309 15.976 69.5989 16.904 69.5989 17.912C69.5989 19.128 69.3509 20.232 68.8549 21.224C68.3749 22.2 67.7029 23.032 66.8389 23.72C65.9749 24.408 64.9509 24.944 63.7669 25.328C62.5989 25.696 61.3349 25.88 59.9749 25.88C59.4949 25.88 59.0309 25.856 58.5829 25.808C58.1349 25.76 57.6949 25.696 57.2629 25.616C56.4949 26.08 56.1109 26.6 56.1109 27.176C56.1109 27.672 56.3349 28.04 56.7829 28.28C57.2469 28.504 57.8549 28.664 58.6069 28.76C59.3589 28.856 60.2149 28.92 61.1749 28.952C62.1349 28.968 63.1189 29.016 64.1269 29.096C65.1349 29.176 66.1189 29.32 67.0789 29.528C68.0389 29.72 68.8949 30.032 69.6469 30.464C70.3989 30.896 70.9989 31.488 71.4469 32.24C71.9109 32.976 72.1429 33.928 72.1429 35.096C72.1429 36.184 71.8709 37.24 71.3269 38.264C70.7989 39.288 70.0229 40.2 68.9989 41C67.9909 41.8 66.7429 42.44 65.2549 42.92C63.7829 43.416 62.1029 43.664 60.2149 43.664C58.3589 43.664 56.7429 43.48 55.3669 43.112C53.9909 42.76 52.8469 42.28 51.9349 41.672C51.0229 41.08 50.3429 40.392 49.8949 39.608C49.4469 38.824 49.2229 38.008 49.2229 37.16C49.2229 36.008 49.5669 35.048 50.2549 34.28C50.9589 33.496 51.9189 32.872 53.1349 32.408C52.4789 32.072 51.9589 31.624 51.5749 31.064C51.1909 30.504 50.9989 29.768 50.9989 28.856C50.9989 28.488 51.0629 28.112 51.1909 27.728C51.3349 27.328 51.5349 26.936 51.7909 26.552C52.0629 26.168 52.3989 25.808 52.7989 25.472C53.1989 25.12 53.6709 24.808 54.2149 24.536C52.9669 23.864 51.9829 22.968 51.2629 21.848C50.5589 20.728 50.2069 19.416 50.2069 17.912C50.2069 16.696 50.4469 15.6 50.9269 14.624C51.4229 13.632 52.1029 12.792 52.9669 12.104C53.8469 11.4 54.8789 10.864 56.0629 10.496C57.2629 10.128 58.5669 9.944 59.9749 9.944C61.0309 9.944 62.0229 10.056 62.9509 10.28C63.8789 10.488 64.7269 10.8 65.4949 11.216H72.5749ZM86.8084 9.992C88.6324 9.992 90.2884 10.288 91.7764 10.88C93.2804 11.472 94.5604 12.312 95.6164 13.4C96.6884 14.488 97.5124 15.816 98.0884 17.384C98.6644 18.952 98.9524 20.704 98.9524 22.64C98.9524 24.592 98.6644 26.352 98.0884 27.92C97.5124 29.488 96.6884 30.824 95.6164 31.928C94.5604 33.032 93.2804 33.88 91.7764 34.472C90.2884 35.064 88.6324 35.36 86.8084 35.36C84.9684 35.36 83.2964 35.064 81.7924 34.472C80.2884 33.88 79.0004 33.032 77.9284 31.928C76.8724 30.824 76.0484 29.488 75.4564 27.92C74.8804 26.352 74.5924 24.592 74.5924 22.64C74.5924 20.704 74.8804 18.952 75.4564 17.384C76.0484 15.816 76.8724 14.488 77.9284 13.4C79.0004 12.312 80.2884 11.472 81.7924 10.88C83.2964 10.288 84.9684 9.992 86.8084 9.992ZM86.8084 30.8C88.8564 30.8 90.3684 30.112 91.3444 28.736C92.3364 27.36 92.8324 25.344 92.8324 22.688C92.8324 20.032 92.3364 18.008 91.3444 16.616C90.3684 15.224 88.8564 14.528 86.8084 14.528C84.7284 14.528 83.1844 15.232 82.1764 16.64C81.1844 18.032 80.6884 20.048 80.6884 22.688C80.6884 25.328 81.1844 27.344 82.1764 28.736C83.1844 30.112 84.7284 30.8 86.8084 30.8Z" fill="#F3F3F3"/>
</svg>
