<svg width="8" height="13" viewBox="0 0 8 13" fill="none" xmlns="http://www.w3.org/2000/svg">
<path d="M3.88986 6.83535C5.63711 6.83535 7.0586 5.41598 7.0586 3.66873C7.0586 1.92149 5.63711 0.5 3.88986 0.5C2.14262 0.5 0.72113 1.92149 0.72113 3.66873C0.72113 5.41598 2.14262 6.83535 3.88986 6.83535ZM3.88986 2.35724C4.6133 2.35724 5.20136 2.9453 5.20136 3.66873C5.20136 4.39217 4.6133 4.98023 3.88986 4.98023C3.16643 4.98023 2.57837 4.39217 2.57837 3.66873C2.57837 2.9453 3.16643 2.35724 3.88986 2.35724Z" fill="#FEFEFE"/>
<path d="M5.1714 9.42042C5.81657 9.27446 6.43847 9.01851 7.01172 8.6589C7.44536 8.38603 7.57651 7.81278 7.30363 7.37914C7.02864 6.9455 6.45751 6.81436 6.02175 7.08723C4.72507 7.90374 3.05398 7.90374 1.75518 7.08723C1.32154 6.81436 0.748288 6.9455 0.475414 7.37914C0.202539 7.81278 0.333688 8.38603 0.767326 8.6589C1.34058 9.01851 1.96248 9.27446 2.60765 9.42042L0.835016 11.193C0.473298 11.5548 0.473298 12.1428 0.835016 12.5067C1.01693 12.6865 1.25385 12.7774 1.49288 12.7774C1.72979 12.7774 1.96671 12.6865 2.14862 12.5067L3.88952 10.7658L5.63042 12.5067C5.99214 12.8684 6.5802 12.8684 6.94403 12.5067C7.30575 12.1428 7.30575 11.5548 6.94403 11.193L5.1714 9.42042Z" fill="#FEFEFE"/>
</svg>
