<svg width="16" height="17" viewBox="0 0 16 17" fill="none" xmlns="http://www.w3.org/2000/svg">
<path fill-rule="evenodd" clip-rule="evenodd" d="M4.7463 2.70847L6.57028 5.10844C6.81028 5.39644 6.76228 5.78043 6.57028 6.02043L5.3223 7.26841C4.7463 7.79641 8.68225 11.7324 9.21025 11.2044L10.4582 9.95638C10.6982 9.71638 11.1302 9.71638 11.3702 9.90838L13.7702 11.7324C14.0582 11.9724 14.0582 12.3083 13.8662 12.5483L12.5222 13.8923L12.3782 14.0363C10.6982 15.6683 6.47428 12.6443 5.1783 11.3484C3.88232 10.0044 0.810354 5.78043 2.49033 4.10045L2.63433 4.00445L3.93031 2.66047C4.17031 2.42047 4.55431 2.46847 4.7463 2.70847Z" fill="#374FC7"/>
</svg>
