<svg width="20" height="21" viewBox="0 0 20 21" fill="none" xmlns="http://www.w3.org/2000/svg">
<path fill-rule="evenodd" clip-rule="evenodd" d="M8.15581 2.75771C4.77925 2.75771 2.04201 5.49495 2.04201 8.8715C2.04201 12.2481 4.77925 14.9853 8.15581 14.9853C11.5324 14.9853 14.2696 12.2481 14.2696 8.8715C14.2696 5.49495 11.5324 2.75771 8.15581 2.75771ZM0 8.8715C0 4.36718 3.65148 0.715698 8.15581 0.715698C12.6601 0.715698 16.3116 4.36718 16.3116 8.8715C16.3116 13.3758 12.6601 17.0273 8.15581 17.0273C3.65148 17.0273 0 13.3758 0 8.8715Z" fill="black"/>
<path fill-rule="evenodd" clip-rule="evenodd" d="M17.6949 20.2897L11.7944 14.3892L13.2341 12.9495L19.1347 18.85L17.6949 20.2897Z" fill="black"/>
</svg>
