<svg width="32" height="33" viewBox="0 0 32 33" fill="none" xmlns="http://www.w3.org/2000/svg">
<circle cx="16" cy="16.5027" r="16" fill="#2CA0D2"/>
<path fill-rule="evenodd" clip-rule="evenodd" d="M20.9451 9.63982C20.3388 9.89769 13.5047 12.8879 7.9382 15.3111C7.49737 15.5171 7.2234 15.9258 7.22567 16.333C7.22793 16.7402 7.5611 17.0438 7.9481 17.0925C8.27986 17.1416 11.5971 17.5812 11.5971 17.5812L12.5646 22.6658L13.0494 20.4236L12.3125 17.0683L19.027 12.45L13.5336 18.0795L15.4785 20.1047C15.5895 20.2058 17.9792 22.7376 18.1458 22.8893C18.4235 23.1423 18.8683 23.6488 19.0892 23.6476C19.476 23.6454 19.8598 23.1343 20.0213 22.3699C20.1831 21.6564 21.2606 16.7131 22.6053 10.1396C22.767 9.4261 22.0471 9.1247 20.9451 9.63982Z" fill="white"/>
</svg>
