<svg width="32" height="33" viewBox="0 0 32 33" fill="none" xmlns="http://www.w3.org/2000/svg">
<circle cx="16" cy="16.5027" r="16" fill="#794E9B"/>
<g clip-path="url(#clip0)">
<path d="M25.318 18.0019C25.8978 13.2346 25.0395 10.2249 23.4914 8.86366C20.9928 6.53895 12.5553 6.19408 9.56607 8.96728C8.22366 10.3238 7.75081 12.3147 7.69899 14.7794C7.64718 17.2449 7.58564 21.8635 11.991 23.1164H11.9951L11.991 25.0298C11.991 25.0298 11.9611 25.805 12.4679 25.9608C13.0476 26.1443 13.31 25.7844 15.1131 23.6804C18.1282 23.9359 20.4439 23.3505 20.707 23.2651C21.3159 23.0658 24.761 22.6205 25.318 18.0019ZM15.4102 22.3341C15.4102 22.3341 13.5018 24.6588 12.9084 25.2624C12.714 25.4585 12.5011 25.4403 12.5043 25.0512C12.5043 24.7957 12.5189 21.8746 12.5189 21.8746C8.78394 20.8289 9.00417 16.8961 9.04465 14.8388C9.08514 12.7806 9.47053 11.095 10.6073 9.95996C13.2298 7.55774 20.6277 8.09482 22.5126 9.82549C24.8169 11.8211 23.9967 17.4593 24.0015 17.6515C23.5279 21.5068 20.7362 21.7512 20.2228 21.9181C20.0034 21.9893 17.9671 22.501 15.4102 22.3341Z" fill="white"/>
<path d="M16.466 10.4116C16.1543 10.4116 16.1543 10.8862 16.466 10.8901C18.8845 10.9083 20.8763 12.5552 20.8981 15.5759C20.8981 15.8947 21.3758 15.8907 21.3718 15.572C21.3459 12.3171 19.1703 10.4298 16.466 10.4116Z" fill="white"/>
<path d="M19.6473 15.0752C19.64 15.39 20.1169 15.4051 20.1209 15.0863C20.1606 13.2915 19.0279 11.8132 16.8993 11.6574C16.5876 11.6352 16.5552 12.1138 16.8661 12.1359C18.7121 12.2728 19.6845 13.5035 19.6473 15.0752Z" fill="white"/>
<path d="M19.137 17.1168C18.737 16.8906 18.3297 17.0314 18.1613 17.2536L17.8091 17.699C17.6302 17.9252 17.2958 17.8951 17.2958 17.8951C14.8555 17.2647 14.2029 14.7699 14.2029 14.7699C14.2029 14.7699 14.1729 14.4322 14.3964 14.2511L14.8368 13.8951C15.0571 13.7243 15.1963 13.3129 14.9721 12.9088C14.3729 11.8512 13.9705 11.4866 13.7657 11.2066C13.5503 10.9432 13.2264 10.8838 12.8896 11.0618H12.8823C12.182 11.462 11.4152 12.2111 11.6605 12.9823C12.0791 13.7954 12.8483 16.3875 15.3 18.346C16.4521 19.2722 18.2755 20.2214 19.0495 20.4405L19.0568 20.4516C19.8195 20.7 20.5612 19.9216 20.9571 19.2169V19.2113C21.1328 18.8704 21.0745 18.5477 20.8178 18.3365C20.3628 17.903 19.6762 17.4245 19.137 17.1168Z" fill="white"/>
<path d="M17.2327 13.4229C18.0108 13.4672 18.3881 13.8643 18.4285 14.6798C18.4431 14.9985 18.9168 14.9764 18.9022 14.6576C18.8504 13.593 18.282 12.9997 17.2586 12.9443C16.9469 12.9262 16.9177 13.4047 17.2327 13.4229Z" fill="white"/>
</g>
<defs>
<clipPath id="clip0">
<rect width="19" height="19" fill="white" transform="translate(6.5 7.00269)"/>
</clipPath>
</defs>
</svg>
