<svg width="32" height="33" viewBox="0 0 32 33" fill="none" xmlns="http://www.w3.org/2000/svg">
<circle cx="16" cy="16.5027" r="16" fill="#37D449"/>
<path d="M11.9904 22.672L12.6782 23.0738C13.8381 23.7503 15.1573 24.1054 16.5 24.1027C18.0031 24.1027 19.4725 23.6569 20.7223 22.8218C21.9721 21.9867 22.9463 20.7998 23.5215 19.4111C24.0967 18.0224 24.2472 16.4942 23.954 15.02C23.6607 13.5457 22.9369 12.1915 21.874 11.1287C20.8111 10.0658 19.4569 9.34196 17.9827 9.04872C16.5084 8.75547 14.9803 8.90597 13.5916 9.4812C12.2029 10.0564 11.0159 11.0305 10.1808 12.2803C9.34574 13.5302 8.90001 14.9995 8.90001 16.5027C8.90001 17.8669 9.25816 19.175 9.92981 20.3255L10.3307 21.0133L9.71036 23.2942L11.9904 22.672ZM7.00381 26.0027L8.28821 21.2831C7.44189 19.8323 6.99725 18.1823 7.00001 16.5027C7.00001 11.2558 11.2532 7.00269 16.5 7.00269C21.7469 7.00269 26 11.2558 26 16.5027C26 21.7495 21.7469 26.0027 16.5 26.0027C14.8211 26.0054 13.1718 25.5611 11.7215 24.7154L7.00381 26.0027ZM13.0715 12.0453C13.1988 12.0358 13.327 12.0358 13.4543 12.0415C13.5056 12.0453 13.5569 12.051 13.6082 12.0567C13.7593 12.0738 13.9255 12.1659 13.9816 12.2932C14.2647 12.9354 14.5402 13.5824 14.8062 14.2312C14.8651 14.3756 14.8299 14.5609 14.7178 14.7414C14.6407 14.8634 14.5573 14.9814 14.468 15.0948C14.3606 15.2325 14.1298 15.4852 14.1298 15.4852C14.1298 15.4852 14.0357 15.5973 14.0718 15.737C14.0851 15.7902 14.1288 15.8671 14.1687 15.9317L14.2248 16.022C14.468 16.4276 14.7948 16.839 15.1938 17.2266C15.3078 17.3368 15.4189 17.4498 15.5386 17.5553C15.9832 17.9476 16.4867 18.2678 17.0301 18.5053L17.0349 18.5072C17.1156 18.5423 17.1565 18.5613 17.2743 18.6117C17.3332 18.6364 17.394 18.6582 17.4557 18.6744C17.5195 18.6906 17.5867 18.6876 17.6488 18.6656C17.7109 18.6436 17.765 18.6037 17.8044 18.5509C18.4922 17.7177 18.5549 17.6636 18.5606 17.6636V17.6655C18.6083 17.6209 18.6651 17.5871 18.727 17.5663C18.789 17.5455 18.8547 17.5382 18.9197 17.5448C18.9767 17.5486 19.0346 17.5591 19.0878 17.5828C19.5923 17.8137 20.4178 18.1737 20.4178 18.1737L20.9707 18.4217C21.0638 18.4663 21.1484 18.5718 21.1512 18.6734C21.155 18.7371 21.1607 18.8397 21.1389 19.0278C21.1085 19.2738 21.0344 19.5693 20.9603 19.7241C20.9095 19.8298 20.8422 19.9267 20.7608 20.011C20.6649 20.1117 20.5599 20.2033 20.4473 20.2846C20.4083 20.3139 20.3687 20.3425 20.3285 20.3701C20.2103 20.4451 20.0889 20.5148 19.9647 20.5791C19.7201 20.709 19.4499 20.7836 19.1733 20.7976C18.9976 20.8071 18.8218 20.8204 18.6451 20.8109C18.6375 20.8109 18.1055 20.7283 18.1055 20.7283C16.7548 20.373 15.5057 19.7075 14.4575 18.7846C14.2428 18.5955 14.0443 18.3922 13.841 18.1899C12.9955 17.3491 12.3571 16.4419 11.9695 15.585C11.7711 15.1644 11.6639 14.7066 11.655 14.2417C11.6511 13.6649 11.8396 13.1033 12.1908 12.6457C12.2602 12.5564 12.3257 12.4633 12.4388 12.3559C12.5594 12.2419 12.6354 12.1811 12.7181 12.1393C12.8279 12.0843 12.9478 12.0519 13.0705 12.0443L13.0715 12.0453Z" fill="white"/>
</svg>
